<?xml version="1.0" standalone="no"?>
<!DOCTYPE svg PUBLIC "-//W3C//DTD SVG 20010904//EN"
 "http://www.w3.org/TR/2001/REC-SVG-20010904/DTD/svg10.dtd">
<svg version="1.0" xmlns="http://www.w3.org/2000/svg"
 width="512.000000pt" height="512.000000pt" viewBox="0 0 512.000000 512.000000"
 preserveAspectRatio="xMidYMid meet">
<metadata>
Created by potrace 1.11, written by Peter Selinger 2001-2013
</metadata>
<g transform="translate(0.000000,512.000000) scale(0.100000,-0.100000)"
fill="#000000" stroke="none">
<path d="M397 4364 c-1 -1 -40 -5 -87 -8 -114 -9 -184 -30 -209 -63 -20 -25
-21 -27 -4 -52 9 -14 21 -30 27 -36 34 -31 231 -184 296 -228 120 -82 240
-159 375 -242 276 -169 909 -594 945 -635 3 -3 41 -32 85 -65 44 -33 85 -64
91 -70 6 -5 33 -28 60 -50 252 -207 426 -391 491 -519 32 -63 41 -142 20 -182
-52 -98 -263 -237 -567 -373 -63 -29 -124 -56 -135 -61 -11 -5 -77 -34 -147
-65 -461 -201 -577 -312 -466 -447 138 -169 326 -286 613 -383 93 -32 268 -74
375 -89 8 -2 33 -6 55 -10 213 -37 551 -37 798 0 20 3 47 7 60 9 235 30 530
117 842 248 134 56 394 195 510 272 71 47 132 89 135 93 3 4 27 24 53 46 359
288 494 647 380 1010 -22 71 -94 233 -116 261 -4 6 -22 33 -39 60 -177 276
-557 615 -903 805 -33 18 -64 36 -70 40 -24 19 -301 153 -410 198 -395 165
-728 263 -1275 377 -47 9 -323 55 -365 60 -27 4 -57 8 -65 10 -13 4 -140 20
-240 30 -77 8 -156 17 -181 20 -26 3 -174 14 -274 21 -133 8 -652 23 -658 18z"/>
</g>
</svg>
